{"version": "0.6.4", "modules": [{"plugin": "Core", "version": "0.6.4", "model": "AudioInterface", "params": [], "pos": [55, 0]}, {"plugin": "HolonicSystems-Free", "version": "1.0.7", "model": "HolonicSystems-HolonicSource", "params": [{"paramId": 0, "value": 1.0, "toggle": 0}, {"paramId": 1, "value": 1.0, "toggle": 0}, {"paramId": 2, "value": 1.0, "toggle": 0}, {"paramId": 3, "value": 1.0, "toggle": 0}, {"paramId": 4, "value": 1.0, "toggle": 0}, {"paramId": 5, "value": 1.0, "toggle": 0}, {"paramId": 6, "value": 1.0, "toggle": 0}, {"paramId": 7, "value": 1.0, "toggle": 0}, {"paramId": 8, "value": 0.80000001192092896, "toggle": 0}, {"paramId": 9, "value": 0.80000001192092896, "toggle": 0}, {"paramId": 10, "value": 0.80000001192092896, "toggle": 0}, {"paramId": 11, "value": 0.80000001192092896, "toggle": 0}, {"paramId": 12, "value": 0.80000001192092896, "toggle": 0}, {"paramId": 13, "value": 0.80000001192092896, "toggle": 0}, {"paramId": 14, "value": 0.80000001192092896, "toggle": 0}, {"paramId": 15, "value": 0.80000001192092896, "toggle": 0}, {"paramId": 16, "value": 0.0, "toggle": 0}, {"paramId": 17, "value": 1.0, "toggle": 0}, {"paramId": 18, "value": 0.0, "toggle": 0}, {"paramId": 19, "value": 0.0, "toggle": 0}, {"paramId": 20, "value": 0.0, "toggle": 0}, {"paramId": 21, "value": 1.0, "toggle": 0}, {"paramId": 22, "value": 0.0, "toggle": 0}, {"paramId": 23, "value": 0.0, "toggle": 0}, {"paramId": 24, "value": 0.0, "toggle": 0}, {"paramId": 25, "value": 0.0, "toggle": 0}], "pos": [0, 0]}, {"plugin": "Bogaudio", "version": "1.1.35", "model": "Bogaudio-Chirp", "params": [{"paramId": 0, "value": 0.63449400663375854, "toggle": 0}, {"paramId": 1, "value": -2.5274996757507324, "toggle": 0}, {"paramId": 2, "value": -0.62849926948547363, "toggle": 0}, {"paramId": 3, "value": 0.0, "toggle": 0}, {"paramId": 4, "value": 1.0, "toggle": 0}, {"paramId": 5, "value": 1.0, "toggle": 0}], "data": {}, "pos": [32, 1]}, {"plugin": "ESeries", "version": "0.6.0", "model": "E340", "params": [{"paramId": 0, "value": -33.407993316650391, "toggle": 0}, {"paramId": 1, "value": 0.0, "toggle": 0}, {"paramId": 2, "value": 0.0, "toggle": 0}, {"paramId": 3, "value": 0.071999922394752502, "toggle": 0}, {"paramId": 4, "value": 0.0, "toggle": 0}, {"paramId": 5, "value": 0.12500002980232239, "toggle": 0}, {"paramId": 6, "value": 0.0, "toggle": 0}], "pos": [12, 0]}, {"plugin": "squinkylabs-plug1", "version": "1.0.11", "model": "squinkylabs-vocalfilter", "params": [{"paramId": 0, "value": 0.80999988317489624, "toggle": 0}, {"paramId": 1, "value": 1.0, "toggle": 0}, {"paramId": 2, "value": -1.2300000190734863, "toggle": 0}, {"paramId": 3, "value": 1.0, "toggle": 0}, {"paramId": 4, "value": -0.95999866724014282, "toggle": 0}, {"paramId": 5, "value": 1.0, "toggle": 0}, {"paramId": 6, "value": 1.0, "toggle": 0}, {"paramId": 7, "value": 0.22499984502792358, "toggle": 0}, {"paramId": 8, "value": 1.0, "toggle": 0}], "pos": [1, 1]}, {"plugin": "Bogaudio", "version": "1.1.35", "model": "Bogaudio-Mix8", "params": [{"paramId": 0, "value": 0.90909093618392944, "toggle": 0}, {"paramId": 1, "value": 0.0, "toggle": 0}, {"paramId": 2, "value": 0.0, "toggle": 0}, {"paramId": 3, "value": 0.90909093618392944, "toggle": 0}, {"paramId": 4, "value": 0.0, "toggle": 0}, {"paramId": 5, "value": 0.0, "toggle": 0}, {"paramId": 6, "value": 0.92349076271057129, "toggle": 0}, {"paramId": 7, "value": 0.0, "toggle": 0}, {"paramId": 8, "value": 0.0, "toggle": 0}, {"paramId": 9, "value": 0.90909093618392944, "toggle": 0}, {"paramId": 10, "value": 0.0, "toggle": 0}, {"paramId": 11, "value": 0.0, "toggle": 0}, {"paramId": 12, "value": 0.90909093618392944, "toggle": 0}, {"paramId": 13, "value": 0.0, "toggle": 0}, {"paramId": 14, "value": 0.0, "toggle": 0}, {"paramId": 15, "value": 0.90909093618392944, "toggle": 0}, {"paramId": 16, "value": 0.0, "toggle": 0}, {"paramId": 17, "value": 0.0, "toggle": 0}, {"paramId": 18, "value": 0.90909093618392944, "toggle": 0}, {"paramId": 19, "value": 0.0, "toggle": 0}, {"paramId": 20, "value": 0.0, "toggle": 0}, {"paramId": 21, "value": 0.90909093618392944, "toggle": 0}, {"paramId": 22, "value": 0.0, "toggle": 0}, {"paramId": 23, "value": 0.0, "toggle": 0}, {"paramId": 24, "value": 0.90909093618392944, "toggle": 0}, {"paramId": 25, "value": 0.0, "toggle": 0}, {"paramId": 26, "value": 0.0, "toggle": 0}], "data": {"dim_decibels": 12.0, "poly_channel_offset": -1}, "pos": [28, 0]}, {"plugin": "squinkylabs-plug1", "version": "1.0.11", "model": "squinkylabs-vocalfilter", "params": [{"paramId": 0, "value": 0.80999988317489624, "toggle": 0}, {"paramId": 1, "value": 1.0, "toggle": 0}, {"paramId": 2, "value": -1.2300000190734863, "toggle": 0}, {"paramId": 3, "value": 1.0, "toggle": 0}, {"paramId": 4, "value": 2.2050020694732666, "toggle": 0}, {"paramId": 5, "value": 1.0, "toggle": 0}, {"paramId": 6, "value": 1.0, "toggle": 0}, {"paramId": 7, "value": -2.4599997997283936, "toggle": 0}, {"paramId": 8, "value": 1.0, "toggle": 0}], "pos": [14, 1]}], "wires": [{"colorIndex": 2, "outputModuleId": 1, "outputId": 1, "inputModuleId": 3, "inputId": 3}, {"colorIndex": 0, "outputModuleId": 3, "outputId": 1, "inputModuleId": 5, "inputId": 5}, {"colorIndex": 1, "outputModuleId": 3, "outputId": 0, "inputModuleId": 5, "inputId": 2}, {"colorIndex": 0, "outputModuleId": 5, "outputId": 1, "inputModuleId": 0, "inputId": 1}, {"colorIndex": 3, "outputModuleId": 5, "outputId": 0, "inputModuleId": 0, "inputId": 0}, {"colorIndex": 1, "outputModuleId": 3, "outputId": 0, "inputModuleId": 4, "inputId": 0}, {"colorIndex": 2, "outputModuleId": 4, "outputId": 0, "inputModuleId": 5, "inputId": 8}, {"colorIndex": 0, "outputModuleId": 3, "outputId": 1, "inputModuleId": 6, "inputId": 0}, {"colorIndex": 3, "outputModuleId": 6, "outputId": 0, "inputModuleId": 5, "inputId": 11}, {"colorIndex": 0, "outputModuleId": 1, "outputId": 0, "inputModuleId": 3, "inputId": 0}]}